<svg width="37" height="27" viewBox="0 0 37 27" fill="none" xmlns="http://www.w3.org/2000/svg">
<path d="M36.064 0.511963V1.23196C35.536 1.42396 34.984 1.84396 34.408 2.49196C33.832 3.11596 33.328 4.12396 32.896 5.51596L26.56 26.072C26.368 26.048 26.164 26.036 25.948 26.036C25.732 26.036 25.516 26.036 25.3 26.036C25.084 26.036 24.868 26.036 24.652 26.036C24.436 26.036 24.232 26.048 24.04 26.072L16.48 3.17596C16.24 2.43196 15.94 1.92796 15.58 1.66396C15.244 1.39996 14.884 1.25596 14.5 1.23196V0.511963C15.172 0.535963 15.964 0.559962 16.876 0.583962C17.812 0.607962 18.736 0.619962 19.648 0.619962C20.704 0.619962 21.688 0.607962 22.6 0.583962C23.536 0.559962 24.28 0.535963 24.832 0.511963V1.23196C24.112 1.25596 23.536 1.33996 23.104 1.48396C22.696 1.62796 22.456 1.90396 22.384 2.31196C22.336 2.71996 22.456 3.36796 22.744 4.25596L27.856 19.88L27.028 21.356L31.096 8.43196C31.672 6.60796 31.948 5.17996 31.924 4.14796C31.9 3.11596 31.624 2.38396 31.096 1.95196C30.568 1.49596 29.812 1.25596 28.828 1.23196V0.511963C29.644 0.535963 30.412 0.559962 31.132 0.583962C31.852 0.607962 32.572 0.619962 33.292 0.619962C33.844 0.619962 34.348 0.607962 34.804 0.583962C35.284 0.559962 35.704 0.535963 36.064 0.511963ZM10.36 0.511963V1.23196C9.87999 1.30396 9.54399 1.48396 9.35199 1.77196C9.15999 2.03596 9.07599 2.39596 9.09999 2.85196C9.14799 3.28396 9.25599 3.75196 9.42399 4.25596L14.932 20.24L13.96 21.536L18.568 8.07196L19.072 9.04396L13.42 26.072C13.228 26.048 13.024 26.036 12.808 26.036C12.592 26.036 12.376 26.036 12.16 26.036C11.944 26.036 11.728 26.036 11.512 26.036C11.296 26.036 11.092 26.048 10.9 26.072L2.83599 3.53596C2.52399 2.64796 2.15199 2.04796 1.71999 1.73596C1.31199 1.42396 0.927993 1.25596 0.567993 1.23196V0.511963C1.28799 0.535963 2.13999 0.559962 3.12399 0.583962C4.10799 0.607962 5.04399 0.619962 5.93199 0.619962C6.89199 0.619962 7.74399 0.607962 8.48799 0.583962C9.25599 0.559962 9.87999 0.535963 10.36 0.511963Z" fill="white"/>
</svg>
